<!-- icon666.com - MILLIONS OF FREE VECTOR ICONS --><svg id="Capa_1" enable-background="new 0 0 55.097 55.097" viewBox="0 0 55.097 55.097" xmlns="http://www.w3.org/2000/svg"><g><g id="_15-basket"><path d="m53.129 17.711h-6.789l-9.248-14.817c-.576-.924-1.792-1.206-2.715-.63s-1.206 1.792-.63 2.715l7.969 12.731h-28.335l7.871-12.73c.576-.924.294-2.14-.63-2.715-.924-.576-2.14-.294-2.715.63l-9.15 14.817h-6.789c-1.087-.001-1.968.88-1.968 1.967v7.871c0 1.087.881 1.968 1.968 1.968h1.968l4.723 22.058c.198.923 1.024 1.576 1.968 1.555h33.786c.944.021 1.77-.631 1.968-1.555l4.782-22.058h1.968c1.087 0 1.968-.881 1.968-1.968v-7.871c-.002-1.087-.883-1.968-1.97-1.968zm-49.194 3.936h47.226v3.935h-47.226zm38.883 27.548h-30.539l-4.231-19.677h39.001zm-25.108-3.621-1.968-11.806c-.174-1.087.566-2.109 1.653-2.283s2.109.566 2.283 1.653l1.968 11.806c.185 1.071-.532 2.089-1.603 2.275-.017.003-.033.006-.05.008h-.315c-.975.013-1.812-.69-1.968-1.653zm15.742-.629 1.968-11.806c.174-1.087 1.196-1.827 2.283-1.653s1.827 1.196 1.653 2.283l-1.968 11.806c-.156.962-.993 1.665-1.968 1.653h-.315c-1.075-.158-1.819-1.158-1.661-2.233.002-.017.005-.034.008-.05z"></path></g></g></svg>