<!-- icon666.com - MILLIONS OF FREE VECTOR ICONS --><svg id="Layer_1" viewBox="0 0 512 512" xmlns="http://www.w3.org/2000/svg" data-name="Layer 1"><path d="m256 0c141.385 0 256 114.615 256 256s-114.615 256-256 256-256-114.615-256-256 114.615-256 256-256zm83.128 313.974a50.181 50.181 0 0 0 3.013-14.9 3.26 3.26 0 0 0 -1.659-3.074l-32.149-19.127a3.363 3.363 0 0 0 -4.285.658l-13.572 15.21a11.5 11.5 0 0 1 -13.186 2.966 106.618 106.618 0 0 1 -57.111-57.128 11.452 11.452 0 0 1 2.957-13.169l15.2-13.573a3.343 3.343 0 0 0 .664-4.282l-19.126-32.155a3.231 3.231 0 0 0 -3.068-1.658 50.971 50.971 0 0 0 -14.9 2.991c-7.767 6.161-12.688 17.208-14.651 32.848a16.4 16.4 0 0 0 .166 5.684c10.173 54.349 58.853 103.012 113.2 113.2a17.411 17.411 0 0 0 5.667.169c15.647-1.957 26.7-6.892 32.841-14.659zm-148.251-99.354c9.92 52.92 57.469 100.472 110.391 110.389a14.157 14.157 0 0 0 4.583.135c10.334-1.294 23.175-4.5 30.167-12.916a46.51 46.51 0 0 0 2.608-13.239l-32.015-19.046-13.511 15.141a15.005 15.005 0 0 1 -17.175 3.865 110.154 110.154 0 0 1 -58.984-59 14.988 14.988 0 0 1 3.859-17.159l15.139-13.516-19.051-32.014a47.455 47.455 0 0 0 -13.239 2.59c-8.4 7.012-11.595 19.843-12.906 30.177a14.08 14.08 0 0 0 .134 4.593zm153.779 74.334-32.149-19.13a11.487 11.487 0 0 0 -14.6 2.248l-13.573 15.206a3.255 3.255 0 0 1 -3.843.871 98.459 98.459 0 0 1 -52.766-52.749 3.267 3.267 0 0 1 .885-3.862l15.2-13.57a11.5 11.5 0 0 0 2.239-14.6l-19.125-32.158a11.449 11.449 0 0 0 -10.477-5.662 59.522 59.522 0 0 0 -17.968 3.7 4.641 4.641 0 0 0 -1.051.578c-9.869 7.471-16.033 20.5-18.327 38.736a25.569 25.569 0 0 0 .249 8.216c5.252 27.978 20.262 55.5 42.239 77.5 22 22 49.536 37.006 77.511 42.244a25.37 25.37 0 0 0 4.838.47 26.637 26.637 0 0 0 3.372-.224c18.245-2.286 31.265-8.448 38.729-18.322a3.928 3.928 0 0 0 .58-1.053 58.327 58.327 0 0 0 3.7-17.949 11.4 11.4 0 0 0 -5.667-10.493zm12.993 59.225a137.074 137.074 0 0 0 0-193.832 137.075 137.075 0 0 0 -220.1 157.075 4.275 4.275 0 0 1 .276 2.867l-21.917 81.811 81.8-21.918a4.127 4.127 0 0 1 2.875.276 137.048 137.048 0 0 0 157.069-26.275zm-96.918-242.179a145.286 145.286 0 0 0 -131.222 207.633l-23.359 87.2a4.046 4.046 0 0 0 1.05 3.961 4.091 4.091 0 0 0 2.9 1.2 4.04 4.04 0 0 0 1.051-.141l87.214-23.367a145.279 145.279 0 1 0 62.366-276.486z" fill="#4caf50" fill-rule="evenodd" style="fill: rgb(250, 94, 7);"></path></svg>