<!-- icon666.com - MILLIONS OF FREE VECTOR ICONS --><svg id="Layer_1" enable-background="new 0 0 152 152" viewBox="0 0 152 152" xmlns="http://www.w3.org/2000/svg"><path id="Icon" d="m137.7 17.2-125.3 54.1c-1.2.5-1.8 1.9-1.2 3.1.2.5.5.9 1 1.1l29.2 17.2c.3.2.6.5.7.9l13.4 39.8c.4 1.2 1.8 1.9 3 1.5.4-.1.7-.3 1-.6l17.5-18.7c.5-.5 1.3-.6 1.9-.3l22.5 12.3c1.1.6 2.6.2 3.2-.9.1-.1.1-.3.2-.4l36.1-106.1c.4-1.2-.2-2.6-1.5-3-.6-.2-1.2-.2-1.7 0zm-73.4 85.6-6.5 18.2-9.4-28.7 68.4-52.1z" fill="#000000" style="fill: rgb(255, 255, 255);"></path></svg>